<?xml version="1.0" encoding="UTF-8"?> <!-- Generator: Adobe Illustrator 22.0.1, SVG Export Plug-In . SVG Version: 6.00 Build 0) --> <svg xmlns="http://www.w3.org/2000/svg" xmlns:xlink="http://www.w3.org/1999/xlink" id="Layer_1" x="0px" y="0px" viewBox="0 0 512 512" style="enable-background:new 0 0 512 512;" xml:space="preserve"> <style type="text/css"> .st0{fill:#333333;} .st1{fill:#FFB229;} .st2{font-family:'SONGERSemiExpanded-Heavy';} .st3{font-size:72px;} </style> <g> <g> <path class="st0" d="M102.6,81H138c4.1,0,7.5-3.4,7.5-7.5S142.2,66,138,66h-35.4c-4.1,0-7.5,3.4-7.5,7.5S98.5,81,102.6,81z"></path> <path class="st0" d="M102.6,112.2H138c4.1,0,7.5-3.4,7.5-7.5s-3.4-7.5-7.5-7.5h-35.4c-4.1,0-7.5,3.4-7.5,7.5 S98.5,112.2,102.6,112.2z"></path> <path class="st0" d="M60.8,248.4h162.8c6.9,0,12.5-5.6,12.5-12.5v-43.2c0-6.9-5.6-12.5-12.5-12.5H60.8c-6.9,0-12.5,5.6-12.5,12.5 v43.2C48.4,242.8,54,248.4,60.8,248.4L60.8,248.4z M63.3,195.2h157.8v38.2H63.3V195.2z"></path> <path class="st0" d="M36.9,282.1v23.8c0,6.9,5.6,12.5,12.5,12.5h23.8c6.9,0,12.5-5.6,12.5-12.5v-23.8c0-6.9-5.6-12.5-12.5-12.5 H49.4C42.5,269.6,36.9,275.2,36.9,282.1z M51.9,284.6h18.8v18.8H51.9V284.6z"></path> <path class="st0" d="M494.5,269.6h-210v-97.5c0-12-9.7-21.7-21.7-21.7h-2v-45.6c0-12.4-10.1-22.5-22.5-22.5h-12.5V25.2 c0-3.8-2.1-7.2-5.6-8.8c-3.4-1.6-7.4-1.1-10.4,1.3l-6.8,5.6l-9-7.4c-3.6-2.9-8.8-2.9-12.4,0l-9,7.4l-9-7.4 c-3.6-2.9-8.8-2.9-12.4,0l-9,7.4l-9-7.4c-3.6-2.9-8.8-2.9-12.4,0l-9,7.4l-9-7.4c-3.6-2.9-8.8-2.9-12.4,0l-9,7.4l-6.8-5.6 c-2.9-2.4-6.9-2.9-10.4-1.3s-5.6,5-5.6,8.8v57.1H46.2c-12.4,0-22.5,10.1-22.5,22.5v45.6h-2c-12,0-21.7,9.7-21.7,21.7v35 c0,4.1,3.4,7.5,7.5,7.5s7.5-3.4,7.5-7.5v-35c0-3.7,3-6.7,6.7-6.7h241.1c3.7,0,6.7,3,6.7,6.7v97.5H118.1c-9.6,0-17.5,7.8-17.5,17.5 v88.1H61.9c-25.8,0-46.9-21-46.9-46.9v-85.6c0-4.1-3.4-7.5-7.5-7.5S0,238.6,0,242.7v85.6c0,19.7,9.3,37.3,23.7,48.6v24.9 c0,12.4,10.1,22.5,22.5,22.5h54.4v56.6c0,9.6,7.8,17.5,17.5,17.5h76.3c4.1,0,7.5-3.4,7.5-7.5s-3.4-7.5-7.5-7.5h-7.8 c-1.6-24.5-14.5-46.6-35.1-60.3v-80.4c20-13.2,32.7-34.5,34.9-58.1h239.8c2.2,23.5,14.8,44.7,34.7,57.9v80.8 C440.3,437,427.6,459,426,483.4H232.5c-4.1,0-7.5,3.4-7.5,7.5s3.4,7.5,7.5,7.5h262c9.6,0,17.5-7.8,17.5-17.5V287.1 C512,277.4,504.2,269.6,494.5,269.6L494.5,269.6z M238.3,97.3c4.1,0,7.5,3.4,7.5,7.5v45.6h-20V97.3L238.3,97.3z M75.2,37.5 c3.6,3,8.8,3,12.4,0l9-7.4l9,7.4c3.6,2.9,8.8,2.9,12.4,0l9-7.4l9,7.4c3.6,2.9,8.8,2.9,12.4,0l9-7.4l9,7.4c3.6,2.9,8.8,2.9,12.4,0 l9-7.4l9,7.4c3.6,3,8.8,2.9,12.4,0l1.5-1.3v114.1H73.7V36.3L75.2,37.5z M38.7,104.8c0-4.1,3.4-7.5,7.5-7.5h12.5v53.1h-20 L38.7,104.8z M46.2,409.4c-4.1,0-7.5-3.4-7.5-7.5v-16.2c7.2,2.9,15,4.5,23.2,4.5h38.7v19.2L46.2,409.4L46.2,409.4z M142.2,330.8 c-3.6,2.3-5.8,6.2-5.8,10.5v83.2c0,4.3,2.2,8.2,5.8,10.5c17,10.8,27.7,28.6,29.3,48.4h-53.5c-1.4,0-2.5-1.1-2.5-2.5V287.1 c0-1.4,1.1-2.5,2.5-2.5h53.2C169.1,303.5,158.6,320.4,142.2,330.8z M497,480.9c0,1.4-1.1,2.5-2.5,2.5H441 c1.6-19.7,12.2-37.4,29.1-48.3c3.6-2.3,5.7-6.2,5.7-10.5v-83.5c0-4.3-2.1-8.2-5.7-10.5c-16.2-10.4-26.7-27.3-28.9-46.1h53.3 c1.4,0,2.5,1.1,2.5,2.5V480.9z"></path> <path class="st0" d="M350.3,327.5c2.2-3.5,1.1-8.1-2.4-10.3c-12.5-7.8-26.9-11.9-41.6-11.9c-43.4,0-78.7,35.3-78.7,78.7 s35.3,78.7,78.7,78.7S385,427.4,385,384c0-13.2-3.3-26.3-9.7-37.8c-2-3.6-6.5-5-10.2-3s-5,6.6-3,10.2c5.1,9.3,7.8,19.9,7.8,30.6 c0,35.1-28.6,63.7-63.7,63.7s-63.7-28.6-63.7-63.7s28.6-63.7,63.7-63.7c12,0,23.6,3.3,33.7,9.6C343.5,332.1,348.1,331,350.3,327.5 L350.3,327.5z"></path> <text transform="matrix(1 0 0 1 284.887 406.7429)" class="st1 st2 st3">₽</text> </g> </g> </svg> 