<?xml version="1.0" encoding="UTF-8"?> <!-- Generator: Adobe Illustrator 22.0.1, SVG Export Plug-In . SVG Version: 6.00 Build 0) --> <svg xmlns="http://www.w3.org/2000/svg" xmlns:xlink="http://www.w3.org/1999/xlink" id="Capa_1" x="0px" y="0px" viewBox="0 0 512 512" style="enable-background:new 0 0 512 512;" xml:space="preserve"> <style type="text/css"> .st0{fill:#333333;} .st1{fill:#FFB229;} </style> <g> <g> <path class="st0" d="M483.6,289.9c-5.4-1-10.7,2.5-11.7,7.9C452,401,361.2,475.9,256,475.9c-103,0-192.2-71.8-214.6-171.6l2.6,2.6 c2,2,4.5,2.9,7.1,2.9s5.1-1,7.1-2.9c3.9-3.9,3.9-10.2,0-14.1l-20.6-20.6c-1.9-1.9-4.4-2.9-7.1-2.9s-5.2,1.1-7.1,2.9L2.9,292.8 c-3.9,3.9-3.9,10.2,0,14.1c3.9,3.9,10.2,3.9,14.1,0l3.7-3.7C43.1,415,141.8,495.9,256,495.9c114.8,0,213.9-81.7,235.5-194.2 C492.6,296.2,489,291,483.6,289.9z"></path> <path class="st0" d="M509.1,205c-3.9-3.9-10.2-3.9-14.1,0l-3.7,3.7C468.9,97,370.2,16.1,256,16.1c-114.8,0-213.9,81.7-235.5,194.2 c-1,5.4,2.5,10.7,7.9,11.7c5.4,1,10.7-2.5,11.7-7.9C60,111,150.8,36.1,256,36.1c103,0,192.2,71.8,214.6,171.6l-2.6-2.6 c-3.9-3.9-10.2-3.9-14.1,0c-3.9,3.9-3.9,10.2,0,14.1l20.6,20.6c1.9,1.9,4.4,2.9,7.1,2.9s5.2-1.1,7.1-2.9l20.6-20.6 C513,215.3,513,208.9,509.1,205L509.1,205z"></path> <path class="st1" d="M256,425c93.2,0,169-75.8,169-169S349.2,87,256,87S87,162.8,87,256S162.8,425,256,425z M256,107 c82.2,0,149,66.9,149,149s-66.9,149-149,149s-149-66.9-149-149S173.8,107,256,107z"></path> <path class="st1" d="M266.6,300.1c1.2,0.5,2.5,0.7,3.7,0.7c4,0,7.7-2.4,9.3-6.3l27.7-69.6c2-5.1-0.5-10.9-5.6-13 c-5.1-2-10.9,0.5-13,5.6L261,287.1C258.9,292.2,261.4,298,266.6,300.1L266.6,300.1z"></path> <path class="st0" d="M323.1,231.2h23l-24.4,55.6c-2.2,5.1,0.1,11,5.1,13.2c1.3,0.6,2.7,0.8,4,0.8c3.8,0,7.5-2.2,9.2-6l30.6-69.6 c1.4-3.1,1.1-6.7-0.8-9.5c-1.8-2.8-5-4.5-8.4-4.5h-38.3c-5.5,0-10,4.5-10,10C313.1,226.7,317.5,231.2,323.1,231.2L323.1,231.2z"></path> <path class="st0" d="M195.1,275.3c1.8,3,5.1,4.9,8.6,4.9h24.7c0,3.7-0.1,7.2-0.1,10.5c0,5.5,4.4,10,9.9,10.1h0.1 c5.5,0,9.9-4.4,10-9.9c0-2.6,0.1-6.3,0.1-10.7c5-0.5,9-4.8,9-9.9c0-5.1-3.9-9.4-8.8-9.9c0.1-16.3,0.1-32.7-0.1-35.1 c-0.5-6.4-4.5-11.7-10-13.4c-5.5-1.7-11.4,0.4-15.6,5.5c-4,4.9-20.9,35.3-28,48.1C193.2,268.5,193.3,272.3,195.1,275.3z M228.6,246.3c0,4.3,0,9.1-0.1,14h-7.9C223.5,255.3,226.2,250.5,228.6,246.3L228.6,246.3z"></path> <path class="st0" d="M189,301.3c5.5-0.1,9.9-4.6,9.9-10.1c-0.1-5.5-4.5-9.9-10-9.9c0,0-0.1,0-0.1,0c-5.5,0.1-11.2,0.1-16.4,0.1 c3.6-4.9,8.2-11.3,14.1-19.6c4.6-6.6,7.6-12.8,8.9-18.6c0.3-1.3,0.6-3.1,0.6-4.9c0-15.3-12.5-27.8-27.8-27.8 c-13.3,0-24.7,9.4-27.3,22.4c-1.1,5.4,2.5,10.7,7.9,11.7c5.4,1.1,10.7-2.5,11.7-7.9c0.7-3.6,3.9-6.3,7.7-6.3 c4.1,0,7.5,3.2,7.8,7.3l-0.2,1.4c-0.6,2.3-2.1,6-5.7,11.2c-11,15.7-17.6,24.3-21.1,28.9c-4.5,5.9-7,9.2-5.3,14.6 c1,3.2,3.5,5.7,6.7,6.8c1.3,0.4,2.4,0.8,16.1,0.8C171.7,301.5,179,301.4,189,301.3L189,301.3z"></path> </g> </g> </svg> 