<?xml version="1.0" encoding="UTF-8"?> <svg xmlns="http://www.w3.org/2000/svg" xmlns:xlink="http://www.w3.org/1999/xlink" id="Layer_1" x="0px" y="0px" viewBox="0 0 496 496" style="enable-background:new 0 0 496 496;" xml:space="preserve" width="512px" height="512px" class=""><g><path style="fill:#F9BA48" d="M40,192v192h160V192H40z M176,360H64v-8c0-30.928,25.072-56,56-56c-22.088,0-40-17.912-40-40 s17.912-40,40-40s40,17.912,40,40s-17.912,40-40,40c30.928,0,56,25.072,56,56V360z" data-original="#F9BA48" class="active-path"></path><g> <path style="fill:#333333" d="M472,120H312v16h160c4.416,0,8,3.584,8,8v288c0,4.416-3.584,8-8,8H24c-4.416,0-8-3.584-8-8V144 c0-4.416,3.584-8,8-8h160v-16H24c-13.232,0-24,10.768-24,24v288c0,13.232,10.768,24,24,24h448c13.232,0,24-10.768,24-24V144 C496,130.768,485.232,120,472,120z" data-original="#333333" class=""></path> <path style="fill:#333333" d="M56,352v16h128v-16c0-25.12-14.584-46.848-35.704-57.32C160.216,285.944,168,271.88,168,256 c0-26.472-21.528-48-48-48s-48,21.528-48,48c0,15.88,7.784,29.944,19.704,38.68C70.584,305.152,56,326.88,56,352z M88,256 c0-17.648,14.352-32,32-32s32,14.352,32,32s-14.352,32-32,32S88,273.648,88,256z M120,304c26.472,0,48,21.528,48,48H72 C72,325.528,93.528,304,120,304z" data-original="#333333" class=""></path> <path style="fill:#333333" d="M225.848,168h44.296C284.408,168,296,156.408,296,142.152V40h-96v102.152 C200,156.408,211.592,168,225.848,168z M216,56h64v86.152c0,5.424-4.424,9.848-9.848,9.848h-44.296 c-5.432,0-9.856-4.424-9.856-9.848V56z" data-original="#333333" class=""></path> <path style="fill:#333333" d="M248,112c13.232,0,24-10.768,24-24s-10.768-24-24-24s-24,10.768-24,24S234.768,112,248,112z M248,80 c4.416,0,8,3.584,8,8s-3.584,8-8,8s-8-3.584-8-8S243.584,80,248,80z" data-original="#333333" class=""></path> <rect x="232" y="216" style="fill:#333333" width="232" height="16" data-original="#333333" class=""></rect> <rect x="232" y="256" style="fill:#333333" width="232" height="16" data-original="#333333" class=""></rect> <rect x="232" y="296" style="fill:#333333" width="232" height="16" data-original="#333333" class=""></rect> <rect x="352" y="336" style="fill:#333333" width="112" height="16" data-original="#333333" class=""></rect> </g></g> </svg> 