<?xml version="1.0" encoding="UTF-8"?> <!-- Generator: Adobe Illustrator 22.0.1, SVG Export Plug-In . SVG Version: 6.00 Build 0) --> <svg xmlns="http://www.w3.org/2000/svg" xmlns:xlink="http://www.w3.org/1999/xlink" id="Capa_1" x="0px" y="0px" viewBox="0 0 512 512" style="enable-background:new 0 0 512 512;" xml:space="preserve"> <style type="text/css"> .st0{fill:#FFB229;} .st1{fill:#333333;} </style> <g> <g> <g> <path class="st0" d="M103.2,193.1l-48.5-48.5c-12.9-12.9-20.1-30.2-20.1-48.5c0-37.8,30.8-68.6,68.6-68.6 c37.8,0,68.6,30.8,68.6,68.6c0,18.3-7.1,35.5-20.1,48.5L103.2,193.1z M103.2,46.3c-27.5,0-49.9,22.4-49.9,49.9 c0,13.3,5.2,25.8,14.6,35.3l35.3,35.3l35.3-35.3c9.4-9.4,14.6-21.9,14.6-35.3C153,68.7,130.7,46.3,103.2,46.3z"></path> </g> <g> <path class="st0" d="M103.2,127.3c-17.2,0-31.2-14-31.2-31.2S86,65,103.2,65s31.2,14,31.2,31.2S120.3,127.3,103.2,127.3z M103.2,83.7c-6.9,0-12.5,5.6-12.5,12.5c0,6.9,5.6,12.5,12.5,12.5c6.9,0,12.5-5.6,12.5-12.5C115.6,89.3,110,83.7,103.2,83.7z"></path> </g> <g> <path class="st1" d="M326,444.1H161.2c-52.4,0-95.1-42.6-95.1-95.1s42.6-95.1,95.1-95.1H216c16.2,0,29.3-13.2,29.3-29.3 s-13.2-29.3-29.3-29.3h-57.3v-29.5H216c32.5,0,58.9,26.4,58.9,58.9s-26.4,58.9-58.9,58.9h-54.8c-36.1,0-65.5,29.4-65.5,65.5 s29.4,65.5,65.5,65.5H326L326,444.1L326,444.1z"></path> </g> </g> </g> <path class="st0" d="M346.9,419.9l66.3,63.1c7.5,7.2,20.2,0.7,18.8-9.6l-5.6-43l27.2-34.6c6.5-8.3-1.1-20-11.3-17.4l-90.2,22.8 C343.6,403.3,340.6,413.9,346.9,419.9L346.9,419.9z M416.2,407.7l-10.2,13c-1.9,2.4-2.7,5.3-2.3,8.3l2.1,16.2l-28.9-27.5 L416.2,407.7z"></path> </svg> 