<?xml version="1.0" encoding="UTF-8"?> <!-- Generator: Adobe Illustrator 22.0.1, SVG Export Plug-In . SVG Version: 6.00 Build 0) --> <svg xmlns="http://www.w3.org/2000/svg" xmlns:xlink="http://www.w3.org/1999/xlink" id="Capa_1" x="0px" y="0px" viewBox="0 0 512 512" style="enable-background:new 0 0 512 512;" xml:space="preserve"> <style type="text/css"> .st0{fill:#333333;} .st1{fill:#FFB229;} </style> <g> <path class="st0" d="M41.2,266.6c0.6,0,1.1-0.1,1.7-0.2c4-0.9,6.5-5,5.6-9c-0.7-3-2.2-9.3-0.1-12c1.5-1.9,5.4-3.1,11-3.3 c22.3-0.8,29.1-11.1,35.7-21c3.5-5.3,7.2-10.9,13.9-16c6.6-5.1,9.4-5.2,9.8-5.2c0.4,0.4,3.3,4.2,2.3,20.7c-0.6,8.7,1.1,15,5.1,19.5 c5.6,6.2,13.8,6.5,20.4,6.7c3,0.1,5.7,0.2,7.8,0.8c6.4,1.8,12,1.2,16.5,0.8c2.8-0.3,5.6-0.6,6.2,0.1c3,3.3,6.4,4.9,10.2,4.8 c7.1-0.2,11.9-6,19.1-14.9c0.7-0.8,1.4-1.6,2.1-2.5c0.4-0.5,0.7-0.7,0.8-0.9c1,0.2,3.3,1.6,4.9,2.6c5.5,3.4,13.9,8.5,24.4,4 c11.5-4.9,14.5-8.6,20.1-16.4c2-2.8,4.6-6.3,8.4-10.9c6.8-8.1,16.6-10.5,20.7-8.6c0.6,0.3,2.6,1.2,1.7,6.6 c-1.3,7.7,0.2,13.6,4.4,17.3c7.4,6.5,18.9,3,27.3,0.4c1.9-0.6,4.1-1.3,5.1-1.4c0.7-0.1,2.9,0.5,4.4,0.8c7.3,1.8,22.4,5.5,29.9-15.9 c5.1-14.5,8.8-15,19.8-16.6c1.2-0.2,2.4-0.4,3.6-0.6c24.4-3.9,29-19.9,32.7-32.8c1-3.6,2-7.1,3.4-10.3c2.2-5.2,6.4-7.8,11.6-11.1 c6.7-4.3,15.1-9.7,18.6-21.6c1.7-5.7,6.5-9,9.1-9.9c-0.1,1.5-0.6,4.1-2.2,8c-5.6,13.8-6.8,21.5-4.1,27.3c2.4,5.3,7.3,6.9,10.2,7.9 c1.1,0.4,2.2,0.7,2.7,1.1c0,0,0,0,0.1,0.1c2.8,3.1,7.5,3.4,10.6,0.6c3.1-2.8,3.4-7.5,0.6-10.6c-0.9-1-1.8-1.8-2.7-2.5 c-2.3-1.6-4.7-2.4-6.6-3c-0.4-0.1-0.9-0.3-1.3-0.4c0-1.5,0.6-5.5,4.4-14.8c4.4-10.8,4.4-18.9,0-24.2c-3.3-3.9-8.4-5.5-14.1-4.3 c-8,1.6-17.8,9.2-21.1,20.5c-1.9,6.6-6.3,9.4-12.3,13.2c-6.2,4-13.2,8.5-17.2,17.8c-1.8,4.1-2.9,8.1-4.1,12.1 c-3.4,11.8-5.6,19.7-20.6,22.1c-1.2,0.2-2.3,0.4-3.4,0.5c-12.2,1.8-23.7,3.5-31.8,26.5c-3,8.6-5.1,8.1-12.2,6.3 c-3.3-0.8-6.6-1.6-10.2-1.1c-2.1,0.3-4.5,1-7.3,1.9s-10,3.1-12.7,2.6c-0.1-0.6-0.1-1.6,0.2-3.5c1.8-10.5-2-19-10.2-22.8 c-11.3-5.2-28.2,0.3-38.5,12.6c-4.2,5-6.9,8.8-9.1,11.8c-4.6,6.4-5.7,7.9-13.8,11.4c-3,1.3-5.5,0.1-10.7-3 c-5.1-3.1-15.9-9.6-25.1,1.5c-0.7,0.9-1.4,1.7-2.1,2.6c-2.5,3.1-5.6,6.8-7.5,8.6c-5.5-5.2-12.4-4.5-17.9-4c-3.7,0.4-7.3,0.7-11-0.3 s-7.6-1.2-11.3-1.3c-3.9-0.1-8.4-0.3-9.8-1.8c-0.5-0.6-1.7-2.5-1.3-8.4c0.8-12.3,0.6-29.2-10.2-35c-10.4-5.5-22.2,3.6-26.1,6.6 c-8.6,6.7-13.4,13.8-17.2,19.6c-5.9,8.9-9.2,13.8-23.8,14.3c-10.5,0.4-18,3.5-22.4,9.2c-6.4,8.3-3.8,19.3-2.6,24.5 C34.8,264.3,37.8,266.6,41.2,266.6L41.2,266.6z M497.1,219.7c-2.1-2.6-4.2-5-6.2-7.3c-9.1-10.4-11.8-14.2-9.2-20.7 c0.6-1.5,1.1-3,1.6-4.7c1.1-4-1.3-8.1-5.3-9.2c-4-1.1-8.1,1.3-9.2,5.3c-0.3,1-0.6,2-1,2.9c-6.4,15.6,2.9,26.1,11.8,36.3 c1.9,2.2,3.9,4.4,5.8,6.8c6.6,8.2,11,21.5,11.6,27.9c-15.5-4-24.2-11.2-25.8-21.4l-0.4-2.7c-1.8-12-3.7-24.4-14.3-27.1 c-6.6-1.7-15.2,0.5-20.8,5.3c-4.9,4.2-7.3,10.1-6.7,16.6c0.2,2,0.5,4.1,0.7,6.4c1,7.8,2.5,19.6-1.8,22.6c-10.8,7.4-12,18.9-13.2,31 c-0.3,2.6-0.5,5.4-0.9,8.2c-1.1,8,1.8,12.3,4.4,14.4c6.6,5.4,16,2.3,23.5-0.2c1.7-0.6,3.3-1.1,4.4-1.4c2.7-0.7,6.6,4.1,12,15.1 c1.6,3.2,3.4,6,5,8.4c5.2,8,9.3,14.4,4.7,36.1c-2,9.5-4.9,12.5-5.9,13c-0.7-0.5-2-2.6-1.2-5.2c3.3-10.8,3.3-19.2-0.2-25 c-2.3-3.7-5.8-6.1-10.2-6.9c-4.5-0.8-7.3-0.2-10.4,2.3c-0.8,0.6-2.9,2.3-13.3,4.1c-11.8,2-14,0.1-19.5-4.4c-2.5-2-5.6-4.6-9.9-7.1 c-7.3-4.2-12.6-3.1-15.8-1.4c-9.3,5-10.6,19.2-11.9,41.9c-0.2,3.2-0.9,5.4-1.9,6.3c-2.4,1.9-10,0.8-16.1-0.2 c-7.2-1.1-15.5-2.4-23-0.6c-10.2,2.3-17.6-0.3-23.5-2.5c-3.5-1.3-6.6-2.4-9.8-2.4c-7.8,0-10,7.6-10.9,10.9 c-0.3,1.1-0.9,3.2-1.4,3.8c-0.4,0.1-1.7,0.1-4.7-0.9c-15.2-5.3-24.2,0.4-30.2,4.1c-3.2,2-5.2,3.2-7.2,3.2 c-6.8,0-22.9-1.7-27.2-17.6s-16.7-17.1-23.4-17.8c-0.7-0.1-1.6-0.2-2.3-0.3c-2.7-15.6-18.9-16.4-39.3-17.3 c-13.5-0.6-19.6,3-21.4,12.5c-0.1,0.3-0.1,0.7-0.2,1c-0.3,0.1-0.8,0.3-1.7,0.6c-9.5,2.4-19.2-9.6-20.4-13.2 c-2-6.2-9-15.9-33.1-11.6C58.3,340,57.5,353.2,57,360.2c-0.1,1-0.2,2.4-0.3,3.5c-9.1,0.8-13.3,10.3-16.2,17.1 c-2-6.9-6-16.1-18.3-22.9c-3.2-1.8-7-4.6-7.2-8.4c-0.1-2.1,0.8-3.8,1.6-4.7c5.5,0.1,21.9-0.4,28.7-10.7c2.9-4.3,5-11.8-1.1-22.9 c-3.1-5.5-4.1-11.2-3.1-17.4c0.6-4.1-2.2-7.9-6.3-8.5s-7.9,2.2-8.5,6.3c-1.4,9.4,0.2,18.5,4.8,26.9c1.9,3.4,2.5,6.2,1.7,7.4 c-2.1,3.2-12.1,4.4-16.5,3.9c-7-0.7-13.1,6.1-15.2,12.9c-1.3,4.1-4.1,18.4,13.9,28.4c8.9,4.9,10.5,11.1,12,17.1 c1.2,4.8,3,12,10.7,13.5c9.6,1.9,13.7-8,16.4-14.5c1.1-2.6,3-7.2,4.4-8.5c4,0.2,6.8-1.3,8.3-2.6c4.4-3.7,4.8-9.6,5.1-14.9 c0.5-7.3,1.1-8.6,2.5-8.9c10.9-1.9,15.7-0.2,16.2,1.4c3.3,10.3,19.9,27.8,38.3,23.2c11-2.8,12.3-10,13-13.4l0,0 c0.9-0.2,2.7-0.3,5.9-0.2c9.5,0.4,17.7,0.9,22.2,2.4c2.9,0.9,3,1.6,3.1,3.2c1.1,10.5,10.9,11.5,15.6,11.9c6.2,0.6,8.8,1.1,10.4,6.8 c7.2,26.6,33.7,28.7,41.7,28.7c6.5,0,11.3-3,15.2-5.5c5.4-3.4,8.9-5.6,17.3-2.7c6.7,2.4,12.2,2.4,16.7,0.1 c5.5-2.9,7.5-8.3,8.6-12.1c0.5,0.2,1,0.4,1.5,0.5c6.9,2.5,17.4,6.3,31.9,3c4.7-1.1,11.2-0.1,17.4,0.8c10,1.5,20.3,3.1,27.8-3 c4.5-3.6,7-9.4,7.5-17c0.5-8.8,1.5-24.7,3.9-29.1c0.3,0.1,0.8,0.3,1.3,0.7c3.3,1.9,5.6,3.8,7.9,5.7c7.9,6.5,14.4,10.5,31.6,7.5 c11.2-1.9,15.8-4.1,18.7-6.1c0.5,1.2,0.8,5-1.4,12.4c-2.2,7-0.4,14.8,4.6,19.9c4.1,4.2,9.7,5.7,15,4.2c5.5-1.6,12.8-7.1,16.5-24.4 c5.9-27.7-0.5-37.7-6.8-47.3c-1.5-2.3-2.9-4.5-4.1-7c-5-10.1-13.4-26.9-29.1-23c-1.7,0.4-3.6,1-5.5,1.7c-2.1,0.7-6,2-8.4,2.3 c0-0.1,0-0.3,0-0.4c0.4-3.1,0.7-5.9,1-8.6c1.1-11.3,1.9-16.9,6.7-20.2c11.9-8.2,9.8-24.8,8.3-36.9c-0.3-2.1-0.5-4.1-0.7-5.8 c-0.1-1.6,0.3-2.8,1.5-3.8c2.2-1.8,5.5-2.4,7-2.3c1.5,2,2.7,9.7,3.4,14.8l0.4,2.8c1.9,12.1,10.5,28,40.8,34.6 c5.2,1.1,9.9-0.7,12.6-5C516.8,256.2,505.6,230.1,497.1,219.7L497.1,219.7z"></path> </g> <path class="st1" d="M356.8,274.9c-2.9-2-7.2-1.2-10.6-1.2c-4.4,0-8.7,0-13.1,0c-6.4,0-6.4,10,0,10c2.1,0,4.3-0.1,6.5-0.1 c-25.5,17.4-59.5,18.1-89.3,13.9c-38.1-5.3-75.7-17.2-114.5-12c-19.1,2.6-37.1,9.3-52.1,21.5c-5,4.1,2.1,11.1,7.1,7.1 c28.5-23.3,68.5-22.2,102.8-16.6c37.6,6.1,75.3,16.8,113.6,9.5c14.7-2.8,28.8-8.4,40.8-17.2c-0.2,1.1-0.5,2.3-0.7,3.3 c-1.1,6.3,8.6,9,9.6,2.7c0.7-4.2,1.5-8.5,2.2-12.7C359.5,279.9,359.8,277,356.8,274.9z"></path> <path class="st1" d="M389.2,264.2c-3.2-2.4-6.3-4.7-9.5-7.1c1.4-2,2.9-4,4.3-6c3.7-5.3-5-10.3-8.6-5c-1.2,1.8-2.5,3.5-3.7,5.3 c-3.9-2.8-7.9-5.6-11.9-8.3c-5.3-3.6-10.3,5-5,8.6c3.7,2.5,7.5,5.1,11.2,7.8c-2.3,3.2-4.6,6.3-7,9.5c-3.9,5.2,4.8,10.1,8.6,5 c2.2-2.9,4.3-5.8,6.4-8.7c3.5,2.5,6.9,5,10.3,7.6C389.3,276.7,394.3,268,389.2,264.2z"></path> <path class="st1" d="M74.9,313.4c-6.4,0-6.4,10,0,10C81.4,323.4,81.4,313.4,74.9,313.4z"></path> </svg> 