<?xml version="1.0" encoding="UTF-8"?> <!-- Generator: Adobe Illustrator 22.0.1, SVG Export Plug-In . SVG Version: 6.00 Build 0) --> <svg xmlns="http://www.w3.org/2000/svg" xmlns:xlink="http://www.w3.org/1999/xlink" id="Capa_1" x="0px" y="0px" viewBox="0 0 512 512" style="enable-background:new 0 0 512 512;" xml:space="preserve"> <style type="text/css"> .st0{fill:#333333;} .st1{fill:#FFC400;} </style> <g> <g> <g> <path class="st0" d="M188.9,88.5L103.5,3.1C99.4-1,92.6-1,88.5,3.1c-4.2,4.2-4.2,10.9,0,15.1L166.3,96L96,166.2L18.2,88.5 c-4.2-4.2-10.9-4.2-15.1,0c-4.2,4.2-4.2,10.9,0,15.1l85.3,85.3c2.1,2.1,4.8,3.1,7.6,3.1s5.5-1,7.5-3.1l85.3-85.3 C193,99.4,193,92.6,188.9,88.5z"></path> </g> </g> <g> <g> <path class="st0" d="M259.1,116l-33.8-33.8c-12.5-12.5-32.8-12.5-45.2,0l-97.2,97.2c-6.1,6.1-9.4,14.1-9.4,22.7 c0,8.5,3.3,16.6,9.3,22.5c10.1,10.1,23.2,23.6,33.2,33.9c6,6.2,14.1,9.7,22.7,9.7c0.1,0,0.2,0,0.3,0c8.6,0,16.6-3.3,22.6-9.4 l97.6-97.6C271.6,148.8,271.6,128.5,259.1,116z M244.1,146.2l-97.6,97.6c-2,2-5.1,3.1-7.6,3.1c-2.9,0-5.5-1.2-7.5-3.2 c-10.1-10.4-23.3-23.9-33.5-34.1c-2-2-3.1-4.7-3.1-7.5c0-2.9,1.1-5.5,3.1-7.6l97.2-97.2c2.1-2.1,4.8-3.1,7.6-3.1s5.5,1,7.6,3.1 l33.8,33.8c2,2,3.1,4.7,3.1,7.6C247.2,141.5,246.1,144.2,244.1,146.2z"></path> </g> </g> <g> <g> <path class="st0" d="M306.2,227.1l-64-64c-4.2-4.2-10.9-4.2-15.1,0c-4.2,4.2-4.2,10.9,0,15.1l56.4,56.4l-48.9,48.9l-56.5-56.4 c-4.2-4.2-10.9-4.2-15.1,0c-4.2,4.2-4.2,10.9,0,15.1l64,64c2.1,2.1,4.8,3.1,7.6,3.1s5.5-1,7.6-3.1l64-64 C310.4,238.1,310.4,231.3,306.2,227.1z"></path> </g> </g> <g> <g> <path class="st0" d="M210.2,131.1c-4.2-4.2-10.9-4.2-15.1,0l-64,64c-4.2,4.2-4.2,10.9,0,15.1c2.1,2.1,4.8,3.1,7.6,3.1 s5.5-1,7.5-3.1l64-64C214.4,142,214.4,135.3,210.2,131.1z"></path> </g> </g> <g> <g> <path class="st0" d="M508.9,408.5l-64-64c-4.2-4.2-10.9-4.2-15.1,0l-85.3,85.3c-4.2,4.2-4.2,10.9,0,15.1l64,64 c2.1,2.1,4.8,3.1,7.6,3.1c2.7,0,5.5-1,7.5-3.1c4.2-4.2,4.2-10.9,0-15.1l-56.4-56.4l70.3-70.3l56.4,56.5c4.2,4.2,10.9,4.2,15.1,0 C513,419.4,513,412.6,508.9,408.5z"></path> </g> </g> <g> <g> <path class="st0" d="M447.2,348c-0.6-1.6-1.6-2.9-2.8-4c-3.6-4.7-20.8-31.1-58.6-92.2c-5.1-8.3-13.7-13.7-23.3-14.8 c-9.8-1.1-19.4,2.2-26.4,9.2l-90.1,90.1c-6.9,6.9-10.2,16.4-9.2,26.1c1.1,9.7,6.4,18.3,14.6,23.5l94.9,60.4 c1.8,1.1,3.8,1.7,5.7,1.7c2.8,0,5.5-1.1,7.5-3.2l85.3-85.3C447.9,356.5,448.8,352,447.2,348z M350.5,423.7L262.9,368 c-2.8-1.7-4.5-4.6-4.9-7.9c-0.4-3.2,0.8-6.4,3.1-8.7l90.1-90.1c2.1-2,4.8-3.2,7.6-3.2c0.4,0,0.8,0,1.3,0.1 c1.9,0.2,5.3,1.1,7.7,4.9c31.6,51,47,75.8,55.6,88L350.5,423.7z"></path> </g> </g> <g> <g> <path class="st0" d="M380.9,301.8c-4.2-4.2-10.9-4.2-15.1,0l-64,64c-4.2,4.2-4.2,10.9,0,15.1c2.1,2.1,4.8,3.1,7.6,3.1 c2.7,0,5.5-1,7.5-3.1l64-64C385,312.7,385,306,380.9,301.8z"></path> </g> </g> <g> <g> <path class="st1" d="M309.3,106.7c-5.9,0-10.7,4.8-10.7,10.7v21.3c0,5.9,4.8,10.7,10.7,10.7c5.9,0,10.7-4.8,10.7-10.7v-21.3 C320,111.4,315.2,106.7,309.3,106.7z"></path> </g> </g> <g> <g> <path class="st1" d="M394.7,192h-21.3c-5.9,0-10.7,4.8-10.7,10.7s4.8,10.7,10.7,10.7h21.3c5.9,0,10.7-4.8,10.7-10.7 S400.6,192,394.7,192z"></path> </g> </g> <g> <g> <path class="st1" d="M380.9,131.1c-4.2-4.2-10.9-4.2-15.1,0l-21.3,21.3c-4.2,4.2-4.2,10.9,0,15.1c2.1,2.1,4.8,3.1,7.6,3.1 c2.7,0,5.5-1,7.5-3.1l21.3-21.3C385,142,385,135.3,380.9,131.1z"></path> </g> </g> <g> <g> <path class="st1" d="M202.7,362.7c-5.9,0-10.7,4.8-10.7,10.7v21.3c0,5.9,4.8,10.7,10.7,10.7s10.7-4.8,10.7-10.7v-21.3 C213.3,367.4,208.6,362.7,202.7,362.7z"></path> </g> </g> <g> <g> <path class="st1" d="M138.7,298.7h-21.3c-5.9,0-10.7,4.8-10.7,10.7c0,5.9,4.8,10.7,10.7,10.7h21.3c5.9,0,10.7-4.8,10.7-10.7 C149.3,303.4,144.6,298.7,138.7,298.7z"></path> </g> </g> <g> <g> <path class="st1" d="M167.5,344.5c-4.2-4.2-10.9-4.2-15.1,0l-21.3,21.3c-4.2,4.2-4.2,10.9,0,15.1c2.1,2.1,4.8,3.1,7.6,3.1 s5.5-1,7.5-3.1l21.3-21.3C171.7,355.4,171.7,348.6,167.5,344.5z"></path> </g> </g> </g> </svg> 